<svg xmlns="http://www.w3.org/2000/svg" width="25" height="25" viewBox="0 0 25 25">
    <path fill="#64686F" fill-rule="evenodd" stroke="#64686F" stroke-width=".6" d="M4.654 20.546a11.44 11.44 0 0 1-3.374-8.145c0-3.077 1.198-5.97 3.374-8.146A11.441 11.441 0 0 1 12.8.88c3.078 0 5.97 1.198 8.146 3.375A11.442 11.442 0 0 1 24.32 12.4c0 3.078-1.198 5.97-3.374 8.145A11.445 11.445 0 0 1 12.8 23.92c-3.078 0-5.97-1.198-8.146-3.374zM2.493 12.4c0 5.684 4.623 10.307 10.307 10.307S23.107 18.084 23.107 12.4 18.484 2.093 12.8 2.093 2.493 6.716 2.493 12.4zM17.6 8.56l-3.84 3.84 3.84 3.84-.96.96-3.84-3.84-3.84 3.84-.96-.96 3.84-3.84L8 8.56l.96-.96 3.84 3.84 3.84-3.84.96.96z" opacity=".5"/>
</svg>
