<?xml version="1.0" encoding="UTF-8" standalone="no"?>
<!-- Created with Inkscape (http://www.inkscape.org/) -->

<svg
   xmlns:dc="http://purl.org/dc/elements/1.1/"
   xmlns:cc="http://creativecommons.org/ns#"
   xmlns:rdf="http://www.w3.org/1999/02/22-rdf-syntax-ns#"
   xmlns:svg="http://www.w3.org/2000/svg"
   xmlns="http://www.w3.org/2000/svg"
   xmlns:sodipodi="http://sodipodi.sourceforge.net/DTD/sodipodi-0.dtd"
   xmlns:inkscape="http://www.inkscape.org/namespaces/inkscape"
   id="svg3336"
   version="1.1"
   inkscape:version="0.91 r13725"
   width="3558.75"
   height="1623.75"
   viewBox="0 0 3558.75 1623.75"
   sodipodi:docname="bankSA_logo.svg">
  <metadata
     id="metadata3342">
    <rdf:RDF>
      <cc:Work
         rdf:about="">
        <dc:format>image/svg+xml</dc:format>
        <dc:type
           rdf:resource="http://purl.org/dc/dcmitype/StillImage" />
        <dc:title></dc:title>
      </cc:Work>
    </rdf:RDF>
  </metadata>
  <defs
     id="defs3340" />
  <sodipodi:namedview
     pagecolor="#ffffff"
     bordercolor="#666666"
     borderopacity="1"
     objecttolerance="10"
     gridtolerance="10"
     guidetolerance="10"
     inkscape:pageopacity="0"
     inkscape:pageshadow="2"
     inkscape:window-width="1920"
     inkscape:window-height="1017"
     id="namedview3338"
     showgrid="false"
     inkscape:zoom="0.25"
     inkscape:cx="1823.5313"
     inkscape:cy="879.81055"
     inkscape:window-x="-8"
     inkscape:window-y="-8"
     inkscape:window-maximized="1"
     inkscape:current-layer="svg3336" />
  <path
     style="fill:#003e75;fill-opacity:1"
     d="m 271.10528,917.34251 c -37.07883,-3.5569 -69.11395,-14.504 -91.4512,-31.2508 -7.35964,-5.5177 -16.4001,-14.5167 -27.49913,-27.3731 -2.95104,-3.4184 -5.39172,-5.1433 -6.875,-4.8588 -3.25385,0.6239 -5.26681,7.557 -5.38157,18.5355 -0.15701,15.0191 -6.08261,24.0628 -19.97959,30.4929 -5.44113,2.5176 -7.59111,2.6321 -49.43851,2.6321 -43.43087,0 -43.79814,-0.022 -50.34929,-2.9823 -9.22492,-4.1688 -17.2010903,-13.2938 -19.0138003,-21.7525 -1.01539997,-4.7381 -1.29267997,-107.4357 -1.01656997,-376.5152 0.36017,-351.00668 0.49307,-370.20753 2.58901997,-374.04269 3.31259,-6.0614 10.6088903,-12.8229 17.0539003,-15.8039 5.51138,-2.54917 7.50454,-2.65341 50.73674,-2.65341 44.85247,0 45.01844,0.01 50.625,2.94725 7.19662,3.77071 13.3266,9.5563 16.35954,15.44045 2.29765,4.45764 2.3932,8.80126 2.46101,111.875 0.0524,79.65556 0.45429,108.35865 1.5625,111.59708 2.14964,6.28165 5.21531,6.25984 10.66662,-0.0759 21.27584,-24.72761 35.65387,-36.44259 58.2748,-47.48135 24.72268,-12.0644 46.48659,-17.1918 77.55053,-18.27025 29.73271,-1.03224 53.68957,3.74971 78.8664,15.74225 18.32152,8.72715 30.64724,17.50175 45.62727,32.48177 23.77905,23.77905 37.28154,48.66768 42.98437,79.23142 5.9606,31.94531 7.2624,279.29048 1.87336,355.94338 -2.97123,42.2623 -19.32457,77.9967 -47.72911,104.2949 -21.92099,20.2955 -51.25288,34.6568 -81.62229,39.9633 -14.14538,2.4717 -41.34898,3.3723 -56.875,1.8829 z m -13.3744,-107.3823 c 29.7939,-7.6235 50.70894,-29.1951 58.467,-60.3023 2.3621,-9.4713 2.70864,-16.4522 3.92844,-79.1376 1.78077,-91.5132 -0.0113,-181.0784 -3.92597,-196.25 -10.04775,-38.93769 -37.57371,-61.07194 -79.47007,-63.90367 -35.11896,-2.37367 -72.01386,15.06763 -90.57364,42.81678 l -6.30136,9.42133 0,147.78132 0,147.78134 4.263,7.0794 c 6.53664,10.8551 12.61676,17.6644 22.41252,25.1004 27.17502,20.6284 59.80627,27.6459 91.20008,19.613 z m 423.30994,107.3829 c -34.26,-3.0563 -67.76148,-14.0414 -93.3625,-30.6134 -14.76208,-9.5559 -36.32679,-31.4917 -44.56319,-45.3301 -7.17979,-12.0632 -13.64216,-28.6174 -17.37694,-44.5131 -3.68209,-15.6716 -3.95401,-62.7614 -0.46237,-80.0709 11.08107,-54.9333 40.80317,-92.98655 92.70446,-118.6897 10.90507,-5.40054 44.41366,-18.39412 101.875,-39.50392 95.09276,-34.93464 114.28236,-43.20355 125.26206,-53.97633 8.1763,-8.02216 12.031,-15.6431 13.8472,-27.37711 2.9968,-19.36101 -3.8244,-40.78401 -17.2656,-54.2252 -25.6574,-25.6574 -79.34501,-31.94286 -116.63399,-13.65488 -22.84748,11.20532 -38.86771,35.74125 -38.9412,59.64082 -0.0349,11.35913 -2.35866,17.13846 -9.928,24.6917 -10.3034,10.2815 -11.7814,10.54932 -58.21547,10.54932 -44.13069,0 -47.26205,-0.47462 -56.44193,-8.55509 -8.42263,-7.4139 -10.37352,-12.60877 -10.4006,-27.69491 -0.0996,-55.55104 29.93815,-107.67541 81.21753,-140.93614 38.19732,-24.77546 82.40789,-37.46363 136.875,-39.28231 129.71226,-4.33115 215.49586,59.24131 228.07156,169.0191 0.8264,7.21415 1.2866,84.61571 1.2932,217.51645 l 0.01,206.317 -3.2232,6.4682 c -3.4173,6.8575 -9.709,12.6574 -17.6041,16.2279 -4.1643,1.8833 -10.0433,2.2216 -44.5285,2.5619 -44.3785,0.4381 -50.1012,-0.1918 -59.3204,-6.5285 -9.0333,-6.209 -13.1212,-13.7355 -14.0069,-25.7894 -1.2342,-16.7958 -4.5754,-17.4104 -19.6997,-3.6235 -38.2007,34.8226 -98.54631,52.7813 -159.18167,47.3721 z m 113.81442,-104.7857 c 29.708,-10.1066 51.1122,-30.6076 60.8551,-58.2871 l 3.5199,-10 0.3755,-64.0776 c 0.3331,-56.84278 0.1576,-64.16114 -1.5545,-64.81813 -1.9607,-0.7524 -133.82359,54.71133 -150.06383,63.11933 -18.20647,9.4259 -31.81214,26.6032 -36.37042,45.918 -2.73668,11.5961 -1.79635,35.1776 1.86714,46.8236 2.68987,8.5509 10.09895,21.0611 15.25574,25.7593 5.16061,4.7016 17.35315,11.4426 25.75142,14.2374 14.67379,4.8831 24.69048,6.0959 47.23899,5.7197 20.19483,-0.337 21.83966,-0.5552 33.12496,-4.3945 z m 322.12336,91.8436 c -8.0972,-2.2285 -15.7148,-7.9431 -20.2484,-15.1901 l -3.75,-5.9944 -0.3208,-275.69339 -0.3208,-275.69343 3.1995,-6.53958 c 3.3787,-6.90593 9.6867,-12.75119 17.6444,-16.35002 4.1706,-1.88619 10.0728,-2.2209 45.1581,-2.56097 26.6929,-0.25871 42.6685,0.088 47.1762,1.02379 8.8038,1.82766 17.7456,8.03406 22.4197,15.56134 3.2942,5.30501 3.7865,7.4129 4.4271,18.95731 0.7573,13.64652 2.4138,17.63448 6.6499,16.00893 1.1562,-0.44368 6.5587,-6.01686 12.0056,-12.38484 32.2283,-37.67851 80.5341,-58.23351 136.5994,-58.12558 48.8336,0.094 93.9792,21.15924 124.5449,58.11355 16.8789,20.40663 27.1239,40.329 34.3837,66.86169 l 3.9331,14.375 0.3355,227.3703 0.3355,227.3703 -2.6079,5.3873 c -3.1127,6.4299 -9.5835,12.3851 -17.3746,15.99 -5.349,2.475 -8.113,2.6561 -46.3135,3.0348 -48.2814,0.4787 -52.1869,-0.1177 -62.7071,-9.5763 -11.4385,-10.2842 -10.3325,11.8682 -11.0883,-222.0764 -0.7473,-231.34933 -0.045,-214.0404 -9.4157,-231.87391 -18.0623,-34.37249 -61.2058,-51.00118 -103.9851,-40.07864 -24.1828,6.17439 -45.0523,20.47705 -59.2208,40.58609 l -6.083,8.63354 0,214.55852 0,214.5585 -3.2232,6.4682 c -3.4172,6.8575 -9.7089,12.6574 -17.604,16.2279 -4.2053,1.9018 -9.9692,2.2027 -46.6728,2.436 -31.5408,0.2005 -43.3561,-0.1414 -47.8766,-1.3855 z m 549.967,-0.01 c -7.7986,-2.1454 -15.4231,-7.5586 -20.1805,-14.3274 l -3.7849,-5.3852 -0.3186,-374.48499 -0.3188,-374.48498 2.5912,-5.35244 c 3.097,-6.39761 9.5793,-12.35621 17.3577,-15.95524 5.3644,-2.4821 8.0618,-2.65347 47.3395,-3.00753 46.5004,-0.41917 50.5601,0.0914 60.4,7.59658 3.0617,2.3352 6.8324,6.92718 8.8331,10.75696 l 3.4909,6.68239 0,196.02589 c 0,124.34214 0.4457,197.19841 1.219,199.23226 1.8857,4.95958 6.3155,4.18681 12.0734,-2.10612 2.6733,-2.92188 40.453,-47.32563 83.9546,-98.67499 43.5016,-51.34936 81.9026,-95.88785 85.3356,-98.9744 10.7819,-9.6938 10.9516,-9.71571 71.9909,-9.28819 l 53.5515,0.37545 6.25,3.21037 c 3.4375,1.76571 7.5702,5.1407 9.184,7.5 2.5027,3.65921 2.8487,5.39728 2.3536,11.82639 -0.3192,4.14523 -1.7241,9.77023 -3.1217,12.5 -1.3978,2.72979 -42.5646,52.1649 -91.4819,109.85582 -48.9173,57.69091 -89.4735,105.88831 -90.1247,107.10532 -0.6514,1.21701 -1.1843,2.77654 -1.1843,3.4656 0,0.68908 45.755,65.32495 101.6778,143.63525 55.9227,78.3103 102.04,143.7366 102.4828,145.3918 0.4429,1.6552 0.8129,6.0662 0.8223,9.8023 0.023,9.0072 -3.71,16.5938 -10.419,21.1764 -10.1363,6.9237 -11.1096,7.0307 -63.9389,7.0307 l -48.75,0 -7.1081,-3.4906 c -4.0133,-1.9707 -10.1054,-6.597 -13.9916,-10.625 -3.786,-3.9239 -47.7479,-65.6344 -97.6932,-137.1344 -49.9452,-71.5 -91.9457,-130.98433 -93.3343,-132.18745 -3.5589,-3.08354 -6.6049,-2.71777 -8.2972,0.99631 -1.0699,2.34815 -1.4579,36.55164 -1.4781,130.31254 -0.026,121.2989 -0.1341,127.3637 -2.3555,132.255 -3.0427,6.7001 -9.5139,13.0635 -17.1234,16.8383 -6.0737,3.0131 -6.426,3.0373 -47.9936,3.3015 -31.6434,0.2012 -43.3495,-0.1394 -47.9096,-1.3939 z"
     id="path3346"
     inkscape:connector-curvature="0"
     sodipodi:nodetypes="ssccssscssssscsssssssssssssssscsscccssscsssssssssssssssssssccsssssccsscssssssssssscccscsssssssssccccsssscsscccsssscsccccsssscsscssscscscscssccsscccssssccscc" />
  <path
     style="fill:#e91b2a;fill-opacity:1"
     d="m 3506.413,1620.4099 c -8.4164,-4.194 -12.9733,-9.673 -24.7018,-29.7008 -21.3861,-36.519 -57.4227,-88.061 -84.9066,-121.4388 -39.328,-47.7621 -88.9916,-97.6987 -137.515,-138.2709 -101.499,-84.8671 -229.3937,-156.9121 -371.875,-209.4828 -150.4492,-55.5106 -322.1259,-91.2024 -497.6443,-103.461 -33.7552,-2.3576 -99.1657,-4.6014 -120.5767,-4.1362 -20.3932,0.443 -26.6535,-1.4143 -36.2446,-10.7529 -11.7027,-11.39448 -10.5926,42.7443 -10.2299,-498.93118 l 0.3205,-478.715013 2.7071,-5.05619 c 3.737,-6.97973 12.4889,-14.7162905 19.8663,-17.5615803 6.0459,-2.33181995 19.7067,-2.38222995 645.5516,-2.38222995 l 639.375,0 7.0519,3.46307995 c 9.397,4.6147598 16.6687,12.6509903 19.1402,21.1526703 1.7494,6.01772 1.9111,84.638803 1.6254,789.783663 l -0.3175,783.10058 -3.1145,6.0986 c -8.5652,16.7718 -31.8537,24.5923 -48.5121,16.291 z M 2596.7896,923.58842 c 45.9759,-3.4069 83.7683,-12.5105 116.5164,-28.0672 58.4451,-27.7637 94.0782,-72.9166 106.7356,-135.2516 3.4074,-16.7803 4.7181,-61.5186 2.4408,-83.3066 -5.4868,-52.4926 -23.2659,-92.14831 -56.8771,-126.86151 -27.556,-28.45965 -39.2768,-36.33774 -148.1844,-99.6013 -92.0212,-53.4544 -101.5458,-59.25828 -116.8813,-71.22238 -30.3416,-23.67125 -42.0053,-48.49971 -40.2274,-85.63251 1.3381,-27.94899 8.8423,-46.76805 25.1996,-63.19585 19.4139,-19.49737 44.1917,-28.26002 79.8107,-28.22496 34.7252,0.0341 56.7531,8.27734 77.2865,28.92184 9.0044,9.05307 11.7756,12.84873 16.5195,22.62595 8.7672,18.0693 10.8545,28.46296 11.6471,57.99802 0.6414,23.90064 0.814,25.2669 3.9254,31.06944 4.0131,7.48404 10.0452,12.59126 18.698,15.83094 6.1537,2.30401 9.828,2.47462 53.294,2.47462 55.2629,0 55.9137,-0.10875 67.0472,-11.20045 9.9775,-9.93994 10.3715,-11.98497 9.5754,-49.70109 -0.7365,-34.88643 -3.0175,-49.48123 -11.5767,-74.07145 -25.4754,-73.18866 -89.9748,-121.47392 -181.9457,-136.207353 -85.9806,-13.77379 -174.4222,1.1307 -231.0725,38.941153 -57.4965,38.37518 -88.6258,96.10845 -92.0661,170.74813 -3.0792,66.80854 24.5666,134.41671 70.9894,173.60497 15.2208,12.84893 17.2819,14.12824 115.3956,71.62945 103.0839,60.41404 111.8491,65.81307 128.2818,79.01579 13.5267,10.86805 21.9073,20.02145 30.0911,32.86585 11.8062,18.5301 16.4084,34.8853 16.3555,58.125 -0.105,46.2233 -19.0973,72.0252 -61.4444,83.4759 -11.233,3.0374 -13.8645,3.2555 -39.534,3.2768 -24.6317,0.02 -28.536,-0.2666 -37.4325,-2.7515 -33.7487,-9.4264 -56.7335,-30.9167 -65.7872,-61.5101 -2.4818,-8.386 -2.8508,-13.1701 -3.526,-45.7179 l -0.7543,-36.3519 -3.7864,-6.1481 c -4.1141,-6.6802 -13.0028,-13.4372 -20.367,-15.48256 -2.764,-0.76769 -23.7838,-1.2746 -52.7216,-1.27145 -47.9362,0.005 -48.1499,0.0168 -54.4567,2.95361 -8.4444,3.9321 -14.7344,9.6421 -17.7958,16.1548 -2.195,4.6698 -2.627,9.0679 -3.405,34.6728 -1.9396,63.8231 7.2375,103.7637 32.587,141.8246 45.7395,68.6757 141.3566,104.1703 257.4455,95.5681 z m 401.026,-17.5333 c 6.1691,-1.713 13.6827,-8.5464 16.8829,-15.3542 1.3886,-2.9541 10.7405,-36.547 20.7821,-74.6509 10.0416,-38.1038 18.7928,-70.5482 19.4469,-72.0985 l 1.1892,-2.8188 119.0183,0.3188 119.0182,0.3188 18.9758,71.6401 c 10.4367,39.402 19.9585,73.8191 21.1595,76.4824 2.5456,5.6451 8.2421,11.802 13.6751,14.7802 3.4155,1.8723 9.6597,2.0973 58.201,2.0973 53.2787,0 54.4757,-0.054 59.375,-2.6909 10.2672,-5.5255 15.1741,-14.3338 13.7926,-24.7587 -1.4772,-11.1463 -191.6999,-749.85738 -194.4904,-755.28442 -2.9386,-5.71481 -9.6051,-11.00614 -16.2777,-12.91982 -2.6001,-0.74569 -39.547,-1.21047 -94.8913,-1.19371 -88.5251,0.0268 -90.7641,0.0868 -96.2582,2.57759 -6.4384,2.91887 -10.7493,6.60143 -13.1678,11.24847 -2.8158,5.41045 -193.3408,748.72119 -194.019,756.94209 -0.5278,6.399 -0.164,8.5045 2.1948,12.7014 3.3572,5.9735 8.5259,10.0501 15.5172,12.2391 6.5972,2.0655 102.6297,2.4359 109.8758,0.4237 z m 87.099,-284.37595 c 0,-3.11379 85.1841,-348.3626 86.4541,-350.39626 2.1244,-3.40158 4.2779,-3.34425 6.5705,0.17491 1.0078,1.54687 20.7235,80.15625 43.8128,174.6875 23.0891,94.53125 42.2842,172.85937 42.6557,174.0625 0.6389,2.06935 -4.1903,2.1875 -89.4088,2.1875 -49.5464,0 -90.0843,-0.32226 -90.0843,-0.71615 z"
     id="path3346-1"
     inkscape:connector-curvature="0"
     sodipodi:nodetypes="ssssssssscssscssscsssssssssssssssssssssssssssssscssscsssscsssccsccccsssscscssssccccsccscss" />
</svg>
